<svg xmlns="http://www.w3.org/2000/svg" xmlns:xlink="http://www.w3.org/1999/xlink" viewBox="0,0,256,256" width="64px" height="64px" fill-rule="nonzero"><g fill="#dddddd" fill-rule="nonzero" stroke="none" stroke-width="1" stroke-linecap="butt" stroke-linejoin="miter" stroke-miterlimit="10" stroke-dasharray="" stroke-dashoffset="0" font-family="none" font-weight="none" font-size="none" text-anchor="none" style="mix-blend-mode: normal"><path d="M0,256v-256h256v256z" id="bgRectangle"></path></g><g fill="#000000" fill-rule="nonzero" stroke="none" stroke-width="1" stroke-linecap="butt" stroke-linejoin="miter" stroke-miterlimit="10" stroke-dasharray="" stroke-dashoffset="0" font-family="none" font-weight="none" font-size="none" text-anchor="none" style="mix-blend-mode: normal"><g transform="scale(4,4)"><path d="M3,7l2.2832,3.16992c0.303,0.42 7.51105,10.2832 16.24805,10.2832h0.68945c1.91277,0.7796 4.53003,1.54688 9.79297,1.54688c5.26167,0 7.87775,-0.76735 9.79102,-1.54687h0.56836c8.737,0 15.946,-9.8632 16.25,-10.2832l2.2832,-3.16992h-15.18359c-1.86827,0 -3.53658,0.60737 -4.76562,1.71484c-2.13937,-1.10662 -5.11856,-1.71484 -8.94336,-1.71484c-3.87888,0 -6.88233,0.62966 -9.02148,1.75781c-1.23233,-1.13347 -2.91553,-1.75781 -4.80664,-1.75781zM11.30469,11h6.87891c0.69705,0 1.32343,0.16787 1.79688,0.4668c-0.65336,1.06327 -0.99219,2.28614 -0.99219,3.6582c0,0.33271 0.02971,0.64238 0.05859,0.95313c-3.02644,-0.8755 -5.80304,-3.13977 -7.74219,-5.07812zM45.72266,11h6.87891c-1.91303,1.91225 -4.64218,4.14056 -7.62109,5.04102c0.0267,-0.29947 0.05664,-0.59625 0.05664,-0.91602c0,-1.38944 -0.34984,-2.62862 -1.02344,-3.70312c0.46267,-0.26707 1.05217,-0.42187 1.70898,-0.42187zM27.0918,12.82227c2.01551,0.03564 3.9082,1.36523 3.9082,4.17773c-3.5,2.5 -8,0 -8,-2c0.882,-1.45075 2.52418,-2.20545 4.0918,-2.17773zM36.91602,12.95313c1.56885,-0.00342 3.20898,0.73438 4.08398,2.04688c0,2 -4.5,4.5 -8,2c0,-2.8125 1.89893,-4.04248 3.91602,-4.04687zM29.95117,19h4.03516c0,0.69 -0.68433,2 -1.98633,2c-1.39,0 -2.04883,-1.31 -2.04883,-2zM18,22l-2.14453,4.49414c10.355,3.287 21.98188,3.287 32.29688,0l-2.15234,-4.49414c-9.569,2.683 -18.896,2.595 -28,0zM49.89453,30.13672c-5.077,1.674 -10.45981,2.60606 -15.88281,2.78906v27.02344c0.782,-0.034 1.56289,-0.0832 2.33789,-0.1582c4.688,-0.391 9.20794,-1.31486 11.46094,-2.00586c1.419,-0.43 2.30537,-1.82292 2.10938,-3.29492l-1.69336,-9.17773c0.085,0.055 0.15805,0.12232 0.24805,0.17188c0.604,0.333 1.26122,0.50195 1.94922,0.50195c0.484,0 0.98237,-0.083 1.48438,-0.25c1.168,-0.386 2.0105,-1.14441 2.4375,-2.19141c0.51523,-1.2619 0.32027,-2.69596 0.00781,-3.8125l0.12891,-0.04883c0.747,-0.28 1.1257,-1.11233 0.8457,-1.86133l-1.11719,-2.98437c-0.28,-0.747 -1.11238,-1.12766 -1.85938,-0.84766l-0.51758,0.19336zM14.11719,30.13867l-1.92969,4.04297l-0.51172,-0.19141c-0.748,-0.28 -1.58133,0.10066 -1.86133,0.84766l-1.11914,2.98438c-0.27812,0.74397 0.09594,1.56806 0.83398,1.85352c-0.3221,1.12405 -0.53485,2.58573 -0.01172,3.86914c0.426,1.047 1.2695,1.80441 2.4375,2.19141c0.503,0.167 1.00233,0.25 1.48633,0.25c0.688,0 1.34622,-0.16895 1.94922,-0.50195c0.38857,-0.21395 0.71468,-0.49113 1.01367,-0.78711l-2.29883,9.79297c-0.195,1.472 0.68938,2.86492 2.10938,3.29492c2.253,0.69 6.77194,1.61681 11.46094,2.00781c0.782,0.073 1.56189,0.12125 2.33789,0.15625v-27.02344c-5.419,-0.184 -10.80448,-1.11511 -15.89648,-2.78711zM11.97852,40.5957l3.32031,1.24414c-0.27775,0.5368 -0.66535,1.09002 -1.16992,1.36523c-0.247,0.136 -0.65747,0.28959 -1.35547,0.05859c-0.571,-0.189 -0.74975,-0.47417 -0.84375,-0.70117c-0.21993,-0.53751 -0.127,-1.28547 0.04883,-1.9668zM51.90039,40.65039c0.16688,0.6792 0.24144,1.40272 0.0332,1.91211c-0.093,0.227 -0.27275,0.51217 -0.84375,0.70117c-0.697,0.231 -1.10747,0.07936 -1.35547,-0.05664c-0.48821,-0.26678 -0.86631,-0.79776 -1.14258,-1.31836z"></path></g></g></svg>