<svg width="123" height="33" viewBox="0 0 123 33" fill="none" xmlns="http://www.w3.org/2000/svg">
<path d="M98.5422 31.5V31V1.90912V1.40912H99.0422H108.417C111.308 1.40912 113.813 2.00607 115.912 3.2235M98.5422 31.5L115.662 3.65628M98.5422 31.5H99.0422H108.02C111.039 31.5 113.638 30.9046 115.794 29.6883L115.795 29.6875C117.948 28.4628 119.589 26.7116 120.712 24.4465L120.712 24.4457C121.833 22.1748 122.383 19.4866 122.383 16.3978C122.383 13.3281 121.838 10.6632 120.726 8.42004M98.5422 31.5L120.278 8.64207M115.912 3.2235C115.912 3.2236 115.912 3.2237 115.912 3.2238L115.662 3.65628M115.912 3.2235C115.912 3.2233 115.911 3.22311 115.911 3.22291L115.662 3.65628M115.912 3.2235C118.009 4.43031 119.614 6.1675 120.726 8.42004M115.662 3.65628C117.669 4.81158 119.208 6.47351 120.278 8.64207M120.726 8.42004L120.278 8.64207M120.726 8.42004C120.726 8.4203 120.726 8.42056 120.726 8.42082L120.278 8.64207M103.065 27.375V27.875H107.792C110.198 27.875 112.191 27.411 113.772 26.483C115.354 25.555 116.533 24.2339 117.309 22.5199C118.086 20.8059 118.474 18.7652 118.474 16.3978C118.474 14.0493 118.091 12.0275 117.323 10.3324C116.556 8.62787 115.411 7.32105 113.886 6.41196C112.361 5.4934 110.463 5.03412 108.19 5.03412H103.065V5.53412M103.065 27.375H107.792C110.136 27.375 112.035 26.9228 113.519 26.0518C115.009 25.1774 116.119 23.9362 116.854 22.3136C117.594 20.6788 117.974 18.7118 117.974 16.3978C117.974 14.1023 117.599 12.1542 116.868 10.5385L116.868 10.5376C116.14 8.92128 115.062 7.69513 113.63 6.84141L113.628 6.84024C112.2 5.97993 110.397 5.53412 108.19 5.53412H103.065M103.065 27.375H102.565V5.53412H103.065M103.065 27.375V5.53412M1.02271 31V31.5H1.52271H5.04543H5.54543V31V20.875H11.4091C13.7292 20.875 15.678 20.4532 17.2244 19.5739L17.2265 19.5727C18.7547 18.6937 19.897 17.5055 20.6353 16.0094C21.3735 14.5324 21.7386 12.8974 21.7386 11.1137C21.7386 9.32948 21.3733 7.69828 20.6341 6.22975C19.8854 4.74249 18.7325 3.56867 17.1943 2.70931C15.6476 1.83032 13.6896 1.40912 11.3523 1.40912H1.52271H1.02271V1.90912V31ZM11.2954 16.75H5.54543V5.53412H11.2386C12.7706 5.53412 13.9465 5.79199 14.803 6.26686L14.803 6.26687L14.8063 6.26869C15.6761 6.74236 16.2882 7.38528 16.6657 8.19908L16.6657 8.19909L16.6675 8.20291C17.067 9.04539 17.2727 10.0122 17.2727 11.1137C17.2727 12.215 17.0671 13.1874 16.6667 14.0404L16.6657 14.0424C16.2867 14.8594 15.676 15.5135 14.812 16.006C13.9662 16.4881 12.8065 16.75 11.2954 16.75ZM25.5326 31V31.5H26.0326H28.6747H29.1747V31V21.7415H39.8082V31V31.5H40.3082H42.9503H43.4503V31V9.18185V8.68185H42.9503H40.3082H39.8082V9.18185V18.3978H29.1747V9.18185V8.68185H28.6747H26.0326H25.5326V9.18185V31ZM68.2113 1.40912H67.7113V1.90912V20.8864C67.7113 22.231 67.4162 23.4088 66.8383 24.4333L66.8376 24.4346C66.2708 25.4461 65.4514 26.2468 64.3653 26.8387C63.2881 27.4163 61.9816 27.7159 60.4272 27.7159C58.873 27.7159 57.5667 27.4164 56.4896 26.839C55.413 26.2473 54.5925 25.4461 54.0157 24.4326C53.438 23.4082 53.1431 22.2307 53.1431 20.8864V1.90912V1.40912H52.6431H49.1204H48.6204V1.90912V21.1705C48.6204 23.2402 49.1043 25.1056 50.0825 26.7525L50.0844 26.7556C51.0714 28.3906 52.4567 29.6783 54.2269 30.6178L54.2288 30.6188C56.0081 31.5532 58.0795 32.0114 60.4272 32.0114C62.7749 32.0114 64.8462 31.5532 66.6256 30.6188L66.6275 30.6178C68.3978 29.6783 69.7788 28.3903 70.7565 26.7544C71.7448 25.1072 72.234 23.2412 72.234 21.1705V1.90912V1.40912H71.734H68.2113ZM78.783 31.5H79.1361L79.2542 31.1673L81.3295 25.3211H89.4467L91.522 31.1673L91.6402 31.5H91.9932H94.7631H95.4793L95.2325 30.8277L87.2211 9.0095L87.1008 8.68185H86.7518H84.0245H83.6754L83.5551 9.0095L75.5438 30.8277L75.2969 31.5H76.0131H78.783ZM85.3881 13.8881L88.2597 21.9773H82.5165L85.3881 13.8881Z" stroke="black"/>
</svg>
