<svg aria-hidden="true" style="position: absolute; width: 0; height: 0; overflow: hidden;" version="1.1" xmlns="http://www.w3.org/2000/svg" xmlns:xlink="http://www.w3.org/1999/xlink">
<defs>
<symbol id="icon-linkedin" viewBox="0 0 20 20">
<path d="M5 3c0 1.062-0.71 1.976-2.001 1.976-1.215 0-1.999-0.862-1.999-1.924 0-1.090 0.76-2.052 2-2.052s1.976 0.91 2 2zM1 19v-13h4v13h-4z"></path>
<path d="M7 10.444c0-1.545-0.051-2.836-0.102-3.951h3.594l0.178 1.723h0.076c0.506-0.811 1.746-2 3.822-2 2.532 0 4.432 1.695 4.432 5.342v7.442h-4v-6.861c0-1.594-0.607-2.81-2-2.81-1.062 0-1.594 0.86-1.873 1.569-0.102 0.254-0.127 0.608-0.127 0.963v7.139h-4v-8.556z"></path>
</symbol>
<symbol id="icon-linkedin-with-circle" viewBox="0 0 20 20">
<path d="M10 0.4c-5.302 0-9.6 4.298-9.6 9.6s4.298 9.6 9.6 9.6 9.6-4.298 9.6-9.6-4.298-9.6-9.6-9.6zM7.65 13.979h-1.944v-6.256h1.944v6.256zM6.666 6.955c-0.614 0-1.011-0.435-1.011-0.973 0-0.549 0.409-0.971 1.036-0.971s1.011 0.422 1.023 0.971c0 0.538-0.396 0.973-1.048 0.973zM14.75 13.979h-1.944v-3.467c0-0.807-0.282-1.355-0.985-1.355-0.537 0-0.856 0.371-0.997 0.728-0.052 0.127-0.065 0.307-0.065 0.486v3.607h-1.945v-4.26c0-0.781-0.025-1.434-0.051-1.996h1.689l0.089 0.869h0.039c0.256-0.408 0.883-1.010 1.932-1.010 1.279 0 2.238 0.857 2.238 2.699v3.699z"></path>
</symbol>
<symbol id="icon-mail" viewBox="0 0 32 32">
<path d="M5.315 9.274l11.185 9.726 11.187-9.728c0.194 0.184 0.313 0.445 0.313 0.735v11.986c0 0.557-0.449 1.007-1.003 1.007h-20.994c-0.564 0-1.003-0.451-1.003-1.007v-11.986c0-0.289 0.121-0.549 0.315-0.733zM6.004 8c-1.107 0-2.004 0.895-2.004 1.994v12.012c0 1.101 0.89 1.994 2.004 1.994h20.993c1.107 0 2.004-0.895 2.004-1.994v-12.012c0-1.101-0.89-1.994-2.004-1.994h-20.993zM16.5 17.7l-10-8.7h20l-10 8.7z"></path>
</symbol>
<symbol id="icon-vertical_align_bottom" viewBox="0 0 24 24">
<path d="M3.984 18.984h16.031v2.016h-16.031v-2.016zM15.984 12.984l-3.984 4.031-3.984-4.031h3v-9.984h1.969v9.984h3z"></path>
</symbol>
<symbol id="icon-chevron-down" viewBox="0 0 24 24">
<path d="M5.293 9.707l6 6c0.391 0.391 1.024 0.391 1.414 0l6-6c0.391-0.391 0.391-1.024 0-1.414s-1.024-0.391-1.414 0l-5.293 5.293-5.293-5.293c-0.391-0.391-1.024-0.391-1.414 0s-0.391 1.024 0 1.414z"></path>
</symbol>
<symbol id="icon-arrow-thin-down" viewBox="0 0 20 20">
<path d="M9 16.172l-6.071-6.071-1.414 1.414 8.485 8.485 8.485-8.485-1.414-1.414-6.071 6.071v-16.172h-2z"></path>
</symbol>
<symbol id="icon-link" viewBox="0 0 20 20">
<path d="M7.859 14.691l-0.81 0.805c-0.701 0.695-1.843 0.695-2.545 0-0.336-0.334-0.521-0.779-0.521-1.252s0.186-0.916 0.521-1.252l2.98-2.955c0.617-0.613 1.779-1.515 2.626-0.675 0.389 0.386 1.016 0.384 1.403-0.005 0.385-0.389 0.383-1.017-0.006-1.402-1.438-1.428-3.566-1.164-5.419 0.675l-2.98 2.956c-0.715 0.709-1.108 1.654-1.108 2.658 0 1.006 0.394 1.949 1.108 2.658 0.736 0.73 1.702 1.096 2.669 1.096s1.934-0.365 2.669-1.096l0.811-0.805c0.389-0.385 0.391-1.012 0.005-1.4s-1.014-0.39-1.403-0.006zM16.891 3.207c-1.547-1.534-3.709-1.617-5.139-0.197l-1.009 1.002c-0.389 0.386-0.392 1.013-0.006 1.401 0.386 0.389 1.013 0.391 1.402 0.005l1.010-1.001c0.74-0.736 1.711-0.431 2.346 0.197 0.336 0.335 0.522 0.779 0.522 1.252s-0.186 0.917-0.522 1.251l-3.18 3.154c-1.454 1.441-2.136 0.766-2.427 0.477-0.389-0.386-1.016-0.383-1.401 0.005s-0.384 1.017 0.005 1.401c0.668 0.662 1.43 0.99 2.228 0.99 0.977 0 2.010-0.492 2.993-1.467l3.18-3.153c0.712-0.71 1.107-1.654 1.107-2.658s-0.395-1.949-1.109-2.659z"></path>
</symbol>
</defs>
</svg>
